<?xml version="1.0" encoding="utf-8"?>
<!-- Generator: Adobe Illustrator 14.0.0, SVG Export Plug-In . SVG Version: 6.00 Build 43363)  -->
<!DOCTYPE svg PUBLIC "-//W3C//DTD SVG 1.1//EN" "http://www.w3.org/Graphics/SVG/1.1/DTD/svg11.dtd">
<svg version="1.1" xmlns="http://www.w3.org/2000/svg" xmlns:xlink="http://www.w3.org/1999/xlink" x="0px" y="0px" width="504px"
	 height="504px" viewBox="0 0 504 504" enable-background="new 0 0 504 504" xml:space="preserve">
<g id="Layer_2">
	<path fill="#180A0D" d="M167.333,59.334c0,0,8.334-13.334,23.667-7.667c0,0,9.667-15,30.667-8.667c0,0,11-15,31.333-2
		c0,0,17.999-11.999,29.999,1.001c0,0,17.667-6.333,31.667,9.667c0,0,11.666-6.666,25.666,9c0,0,21.666-1,31,29.667
		c0,0,43.664,41,22.664,120.667c0,0-6.334,27.666-40.334,66.333c0,0-26.996,29.667-62.996,61.333l-0.334,7.999
		c0,0,0.334,7.333-7.666,25c0,0-1.666,5.666-10,7.333c0,0-24.333,4-41.666-1c0,0-5.333,0.001-7.333-7.666c0,0-6-12.999-7.333-20.332
		v-10.333c0,0-56.33-48-83.997-87.333c0,0-26.667-37.999-26.333-75.333c0,0-3.667-45.999,26.999-84.999
		C133.002,92.004,144.664,56.33,167.333,59.334z"/>
</g>
<g id="Layer_7">
	<polygon points="238,402.75 232.25,411.25 232.75,440.25 272.75,440.5 273.25,413 268.5,403 	"/>
</g>
<g id="Layer_3">
	<path fill="#F4D470" d="M220.5,339.75c0,0,29.75-11.75,65,0.25l-0.25,4.5c0,0-34-10.75-64.5,0.75L220.5,339.75z"/>
	<path fill="#D8A93B" d="M221.75,348.5c0,0,30.75-11,62.5,0L278,369c0,0-29.75-7.75-48.75,0.5L221.75,348.5z"/>
	<path fill="#B1662B" d="M230.75,373c0,0,21-8.5,45.25,0.25C276,373.25,250,379,230.75,373z"/>
	<rect x="235.25" y="414.25" fill="#67331D" width="34.5" height="23.25"/>
	<polygon fill="#67331D" points="239.5,405.75 235.5,411.75 269,411.75 265.5,405.75 	"/>
</g>
<g id="Layer_4">
	<path fill="#CB6828" d="M131,102.001c0,0-8,10.333-10.667,19c0,0,4.499-3.335,8.499-4.168
		C128.832,116.833,128.834,108.836,131,102.001z"/>
	<path fill="#CB6828" d="M126.832,121.498c0,0-15.501,9-16.001,42.5c0,0-2.166,20.667,5.667,44.5c0,0,3,14.501,18,37.5
		c0,0,6.167,11.333,26.667,34.5c0,0,23.5,23.832,56.167,54.165l0.833,1.167l1.5-1.167c0,0-31.168-29.165-47.001-52.165
		c0,0-21.167-27.667-30-48.333c0,0-16.002-35-17.002-52.167C125.663,182,122.167,145.497,126.832,121.498z"/>
	<path fill="#CB6828" d="M220,47c0,0-20.5-4.75-32.5,15.75c0,0-7,11.5-10,33.75c0,0,12-11.25,32.5-7.5C210,89,209.5,64.75,220,47z"
		/>
	<path fill="#CB6828" d="M209.5,92.75c0,0-20.75-4.5-33.75,11.25c0,0-3.25,37.5,5.25,72.5c0,0,2.25,15.5,17.5,61.75
		c0,0,21.75,59.5,36.5,91.75c0,0,4-0.5,6.75,0c0,0-14.5-70.75-19.25-108c0,0-7.5-50.5-11-86C211.5,136,209.5,106.25,209.5,92.75z"/>
	<path fill="#CB6828" d="M285.282,45.167c0,0,20.5-4.75,32.5,15.75c0,0,7,11.5,10,33.75c0,0-12-11.25-32.5-7.5
		C295.282,87.167,295.782,62.917,285.282,45.167z"/>
	<path fill="#CB6828" d="M296.782,90.917c0,0,20.75-4.5,33.75,11.25c0,0,3.25,37.5-5.25,72.5c0,0-2.25,15.5-17.5,61.75
		c0,0-22.282,61.833-37.032,94.083c0,0-4-1.25-6.75-0.75c0,0,15.032-72.333,19.782-109.583c0,0,7.5-50.5,11-86
		C294.782,134.167,296.782,104.417,296.782,90.917z"/>
	<path fill="#CB6828" d="M373.223,100.334c0,0,8,10.333,10.666,19c0,0-4.498-3.335-8.498-4.168
		C375.391,115.166,375.389,107.17,373.223,100.334z"/>
	<path fill="#CB6828" d="M377.391,119.832c0,0,15.502,9,16.002,42.5c0,0,3.774,21.168-4.06,45.002c0,0-3.334,16-18.334,39
		c0,0-7.5,11.5-28,34.666c0,0-22.833,24.166-55.499,54.5l-1.443-1.336l-0.307-0.414c0,0,31.667-29,47.5-52
		c0,0,19.475-28.584,28.308-49.25c0,0,16.003-35,17.003-52.167C378.561,180.333,382.055,143.83,377.391,119.832z"/>
</g>
<g id="Layer_9">
	<rect x="251.75" y="380.25" width="2" height="32.25"/>
	<rect x="266.234" y="377.857" transform="matrix(0.9828 0.1847 -0.1847 0.9828 76.7868 -42.6309)" width="1.93" height="25.905"/>
	
		<rect x="237.735" y="377.107" transform="matrix(-0.9828 0.1847 -0.1847 -0.9828 545.342 729.3143)" width="1.93" height="25.905"/>
</g>
<g id="Layer_5">
	<path fill="#2F1010" d="M165,64.5c0,0-19.667-5.333-33.333,48.5c0,0,5.5-6.334,18.5-5.5C150.167,107.499,153.333,80.5,165,64.5z"/>
	<path fill="#2F1010" d="M149,111.833c0,0-12.5-2.5-19.333,8.333c0,0-4.5,25.832-2.834,50.832c0,0-1,17.167,11.333,46.833
		c0,0,7.833,22.167,26.166,50.167c0,0,7,11.669,29,37.335c0,0,7,8.667,28.5,28.5c0,0,2.333-1,4.333-1c0,0-20.999-32.833-33.999-58.5
		c0,0-19.333-34.333-28.5-61.333c0,0-13.166-32-15-52.667C148.667,160.333,146.331,123,149,111.833z"/>
	<path fill="#2F1010" d="M252,46c0,0-20-15.5-33,8.5c0,0-6,13.25-6.25,32.75c0,0,14.5-12.25,39-1C251.75,86.25,250.25,64,252,46z"/>
	<path fill="#2F1010" d="M212.75,91.5c0,0-4,14.5,3.25,67.5c0,0,4.5,39,11.5,79.75c0,0,5.5,38.75,16.5,90.75h7.75l-0.083-139.167
		l-0.333-99.666C251.333,90.668,234.167,78.666,212.75,91.5z"/>
	<path fill="#2F1010" d="M317.5,55.75c0,0,25.5-8.5,34.75,47.25c0,0-5.75-8.25-21.5-5.25C330.75,97.75,328.25,67.75,317.5,55.75z"/>
	<path fill="#2F1010" d="M332.25,101.5c0,0,13.5-4,21.5,9.25c0,0,5,27.25-1.75,60.25c0,0-5,27.5-24.75,70.5
		c0,0-18.75,39.75-49.5,89.5l-4.75-0.25c0,0,24-54.75,38.25-97c0,0,19-49.75,20.75-86C332,147.75,335,114,332.25,101.5z"/>
</g>
<g id="Layer_6">
	<path fill="#A9C655" d="M189,56.5c0,0-23.75-10.5-35.75,47.75c0,0,7.25-7,20.25-4C173.5,100.25,173.75,78,189,56.5z"/>
	<path fill="#A9C655" d="M173.25,104.25c0,0-12.75-3.25-20.75,6.25c0,0-7,28,2.25,65.5c0,0,5.25,24.75,19.5,56.5
		c0,0,10.5,24.5,30.5,60.5c0,0,18.25,30.5,23,38l4.5-0.5c0,0-36.5-82.75-45.5-119.75c0,0-9.5-29.75-12.75-55.5
		C174,155.25,171.5,147.25,173.25,104.25z"/>
	<path fill="#A9C655" d="M254.25,45.75v39.5c0,0,19.75-10.75,38.5,2c0,0-0.5-43.25-23.5-47C269.25,40.25,262,38.5,254.25,45.75z"/>
	<path fill="#A9C655" d="M254.5,89.5l-0.25,239.75l6.75,0.25c0,0,7.75-33.5,16.25-87.75c0,0,10.75-56,13.5-96.75
		c0,0,3.25-24.5,2.75-52.75C293.5,92.25,276.5,77.75,254.5,89.5z"/>
	<path fill="#A9C655" d="M342.5,66c0,0,21.25-2.25,29.5,45.25c0,0-3-4.75-16.5-3.25C355.5,108,355.75,85.25,342.5,66z"/>
	<path fill="#A9C655" d="M357,112c0,0,4.5,38.75-5.25,70.75c0,0-3,22.25-25.75,66.75c0,0-22.25,48.75-46.25,82.5l4.5,1
		c0,0,47.5-45.75,61.5-76.75c0,0,26.75-44.25,29.75-81.75c0,0,3.5-32.25-1.5-55.25C374,119.25,368.5,108,357,112z"/>
</g>
<g id="Layer_8">
</g>
</svg>
